<mxfile host="app.diagrams.net" modified="2023-06-08T01:50:46.113Z" agent="Mozilla/5.0 (Windows NT 10.0; Win64; x64) AppleWebKit/537.36 (KHTML, like Gecko) Chrome/113.0.0.0 Safari/537.36" version="21.3.7" etag="byJAOCGh7UT_ZR2PlHz6" type="github">
  <diagram name="Page-1" id="M_oGLcq4RInFSC70Gwvo">
    <mxGraphModel>
      <root>
        <mxCell id="0" />
        <mxCell id="1" parent="0" />
      </root>
    </mxGraphModel>
  </diagram>
</mxfile>
